<?xml version="1.0" standalone="no"?>
<!DOCTYPE svg PUBLIC "-//W3C//DTD SVG 20010904//EN"
 "http://www.w3.org/TR/2001/REC-SVG-20010904/DTD/svg10.dtd">
<svg version="1.0" xmlns="http://www.w3.org/2000/svg"
 width="1024.000000pt" height="1024.000000pt" viewBox="0 0 1024.000000 1024.000000"
 preserveAspectRatio="xMidYMid meet">
<metadata>
Created by potrace 1.11, written by Peter Selinger 2001-2013
</metadata>
<g transform="translate(0.000000,1024.000000) scale(0.100000,-0.100000)"
fill="#000000" stroke="none">
<path d="M5058 7875 c-2 -1 -46 -5 -98 -9 -107 -7 -133 -10 -260 -32 -209 -36
-457 -130 -655 -247 -196 -117 -403 -300 -510 -451 -11 -16 -29 -40 -40 -55
-27 -34 -96 -153 -124 -214 -99 -217 -139 -416 -136 -681 2 -176 5 -210 31
-346 2 -8 6 -30 9 -48 3 -18 17 -65 30 -105 145 -443 443 -743 930 -937 121
-48 430 -139 595 -175 329 -72 816 -200 928 -244 324 -128 497 -319 559 -614
18 -90 24 -305 10 -396 -26 -166 -111 -332 -234 -458 -156 -159 -356 -257
-630 -309 -13 -2 -35 -6 -50 -9 -74 -14 -186 -20 -373 -20 -200 0 -277 8 -435
42 -38 8 -81 17 -95 19 -14 3 -36 9 -50 14 -14 5 -45 14 -70 20 -147 38 -447
165 -611 260 -156 90 -354 233 -466 334 -46 43 -69 56 -92 56 l-31 0 -1 -62
c0 -81 0 -843 0 -884 1 -27 7 -34 39 -47 20 -8 66 -29 102 -45 376 -173 798
-303 1130 -346 181 -23 207 -26 350 -33 348 -17 620 -4 875 42 345 62 742 277
998 540 114 117 237 294 289 415 10 25 27 61 37 81 46 89 113 335 129 474 9
80 9 353 -1 437 -28 254 -136 522 -285 711 -198 249 -529 440 -977 563 -108
29 -544 139 -635 160 -80 18 -65 14 -262 64 -229 58 -358 103 -471 163 -309
164 -453 400 -462 752 -2 88 3 145 17 214 81 398 464 676 1003 727 120 11 364
6 470 -11 17 -3 47 -7 67 -10 382 -52 907 -298 1221 -573 29 -25 46 -32 70
-30 l32 3 0 458 c0 253 -2 463 -5 468 -17 27 -422 180 -610 230 -19 5 -43 12
-52 14 -10 3 -26 7 -35 9 -10 2 -45 11 -78 19 -33 9 -78 18 -100 22 -22 3 -47
7 -55 10 -21 6 -67 14 -120 21 -25 3 -70 9 -100 14 -30 5 -82 11 -115 14 -33
3 -94 8 -135 12 -72 6 -456 14 -462 9z"/>
</g>
</svg>
